#!OML:ASF H:\Punching\Project 1\Capture day 1\Session 1\female.ASF
:FULLY-SPECIFIED
:DEGREES
1163
root -0.635248 15.3132 3.05126 -17.6193 -20.3231 4.60013
lowerback -0.763904 1.21668 11.0192
upperback -0.994775 1.56484 -7.4444
thorax -0.115308 0.723344 -14.4553
lowerneck 7.87056 12.2364 16.8071
upperneck 44.6523 22.7047 -10.9152
head 19.9365 11.2251 -4.93193
rclavicle -1.59028e-015 8.11041e-014
rhumerus -2.27129 35.9574 -90.2871
rradius 128.007
rwrist -20.2669
rhand -29.2086 8.3826
rfingers 7.12502
rthumb -2.55314 -21.5819
lclavicle -1.59028e-015 8.11041e-014
lhumerus -27.7017 -12.3154 71.2331
lradius 140.868
lwrist 0.896719
lhand -27.9274 3.41588
lfingers 7.12502
lthumb -1.31579 33.3916
rfemur 6.7087 9.93757 27.7544
rtibia 32.2606
rfoot -17.2003 -7.83198
rtoes 12.0706
lfemur -64.3729 -0.884568 22.2897
ltibia 38.4642
lfoot -8.13086 42.6179
ltoes 30.495
1164
root -0.654943 15.3145 3.09559 -17.8439 -20.9857 4.89283
lowerback -1.04271 1.27943 11.1139
upperback -1.18531 1.62377 -7.50963
thorax -0.138106 0.738828 -14.5877
lowerneck 7.66876 12.4519 17.0037
upperneck 45.2063 23.0059 -10.74
head 20.5073 11.413 -4.99319
rclavicle -8.98507e-014 7.15625e-015
rhumerus -2.67066 36.7007 -91.0033
rradius 127.632
rwrist -20.7112
rhand -29.1334 8.40209
rfingers 7.12502
rthumb -2.48051 -21.5632
lclavicle -8.98507e-014 7.15625e-015
lhumerus -28.6775 -11.7046 71.2468
lradius 140.979
lwrist 1.10942
lhand -27.9229 3.46153
lfingers 7.12502
lthumb -1.31147 33.4372
rfemur 6.97483 9.89408 27.5133
rtibia 32.2678
rfoot -17.4153 -7.14639
rtoes 12.3069
lfemur -63.6011 -9.31816 32.5474
ltibia 36.3097
lfoot -38.3364 37.8469
ltoes 43.7623
1165
root -0.673565 15.3119 3.13782 -18.111 -21.5791 5.16625
lowerback -1.25353 1.30594 11.1465
upperback -1.33758 1.63967 -7.53731
thorax -0.17521 0.733713 -14.6383
lowerneck 7.94317 12.6072 17.0588
upperneck 45.3841 23.3555 -10.805
head 20.7257 11.5667 -4.99661
rclavicle -2.18663e-014 3.4191e-014
rhumerus -2.9141 37.4245 -91.4317
rradius 127.267
rwrist -21.0961
rhand -29.0031 8.4031
rfingers 7.12502
rthumb -2.35472 -21.5636
lclavicle -2.18663e-014 3.4191e-014
lhumerus -29.5605 -11.095 71.3129
lradius 141.104
lwrist 1.40844
lhand -27.8855 3.52893
lfingers 7.12502
lthumb -1.2753 33.5049
rfemur 7.26215 9.7749 27.2667
rtibia 32.3193
rfoot -17.6639 -6.45925
rtoes 12.5121
lfemur -62.3534 -9.39339 33.929
ltibia 34.9387
lfoot -46.7422 26.8864
ltoes 50.8148
1166
root -0.692662 15.3077 3.17593 -18.4138 -22.0834 5.40726
lowerback -1.39364 1.29432 11.1227
upperback -1.45144 1.61057 -7.53472
thorax -0.228314 0.707078 -14.6195
lowerneck 8.15972 12.7552 17.112
upperneck 45.5037 23.6826 -10.8868
head 20.9144 11.7076 -5.00451
rclavicle -1.78906e-014 -2.3059e-014
rhumerus -3.01323 38.1133 -91.5978
rradius 126.917
rwrist -21.3224
rhand -28.8318 8.38651
rfingers 7.12502
rthumb -2.1893 -21.582
lclavicle -1.78906e-014 -2.3059e-014
lhumerus -30.3164 -10.514 71.4118
lradius 141.24
lwrist 1.77487
lhand -27.8155 3.61196
lfingers 7.12502
lthumb -1.20768 33.5883
rfemur 7.59051 9.5854 27.0371
rtibia 32.366
rfoot -17.9131 -5.80363
rtoes 12.6712
lfemur -61.4439 -9.67155 35.132
ltibia 34.1941
lfoot -50.5438 19.2178
ltoes 53.5921
1167
root -0.713138 15.3028 3.2086 -18.739 -22.4879 5.60345
lowerback -1.46386 1.24197 11.0431
upperback -1.53128 1.53309 -7.50195
thorax -0.302442 0.656722 -14.5321
lowerneck 8.33213 12.8924 17.1619
upperneck 45.5588 23.983 -10.9881
head 21.061 11.8343 -5.0198
rclavicle 2.50469e-014 5.08889e-014
rhumerus -2.99664 38.7678 -91.5421
rradius 126.587
rwrist -21.3151
rhand -28.632 8.39746
rfingers 7.12502
rthumb -1.99632 -21.5729
lclavicle 2.50469e-014 5.08889e-014
lhumerus -30.9293 -9.96767 71.5291
lradius 141.381
lwrist 2.18079
lhand -27.7316 3.68847
lfingers 7.12502
lthumb -1.12666 33.6652
rfemur 7.96554 9.33643 26.8437
rtibia 32.3769
rfoot -18.1376 -5.20466
rtoes 12.7819
lfemur -60.8488 -10.1539 36.1496
ltibia 33.901
lfoot -52.7156 14.9756
ltoes 54.6149
